<svg  x="0px" y="0px" viewBox="199 389 16 16" enable-background="new 199 389 16 16" xml:space="preserve">
<path d="M214.4,401.6l-3.1-3.1c0.5-0.9,0.7-1.9,0.7-3c0-3.6-2.9-6.5-6.5-6.5c-3.6,0-6.5,2.9-6.5,6.5s2.9,6.5,6.5,6.5
	c1.1,0,2.1-0.3,2.9-0.7c0,0,0,0,0,0c0,0,0,0,0,0l3.1,3.1c0.8,0.8,2,0.8,2.8,0C215.2,403.6,215.2,402.4,214.4,401.6z M200.5,395.5
	c0-2.8,2.2-5,5-5c2.8,0,5,2.2,5,5s-2.2,5-5,5S200.5,398.3,200.5,395.5z M213.4,402.6c-0.2,0.2-0.5,0.2-0.7,0l-1.4-1.4
	c-0.2-0.2-0.2-0.5,0-0.7s0.5-0.2,0.7,0l1.4,1.4C213.5,402.1,213.5,402.5,213.4,402.6z"/>
</svg>
